<svg xmlns="http://www.w3.org/2000/svg" viewBox="0 0 792 612"><defs><style>.cls-1,.cls-7{fill:#005aa3;}.cls-2,.cls-6{fill:#b38b2e;}.cls-2,.cls-3,.cls-4,.cls-5,.cls-7{fill-rule:evenodd;}.cls-3,.cls-8{fill:#b9943d;}.cls-4{fill:#4c2f92;}.cls-5{fill:#fff;}</style></defs><g id="Layer_1-2" data-name="Layer 1"><rect class="cls-1" x="216.65" y="207.58" width="288.36" height="242.5"/><rect class="cls-1" x="216.65" y="122.44" width="285.44" height="78.93"/><polygon class="cls-2" points="276.04 363.86 361.58 333.93 447.7 365.05 446.56 370.79 360.99 344.22 276.04 369.81 276.04 363.86"/><path class="cls-3" d="M370.29,218.49a17.69,17.69,0,0,1-2.92,8.07c-9.52,12.86-27,27.18-35.31,38.64a23,23,0,0,0-4.36,13.44,52.69,52.69,0,0,0,1.12,8.83s-1.3-6.34,3.49-13.39c11-16.23,34.95-32.67,37.64-43.41C370.29,225.86,370.29,218.49,370.29,218.49Z"/><path class="cls-3" d="M387.63,266.7a39.7,39.7,0,0,1,.86,7.45c-.17,2.43-2.21,5.72-4.07,8.67s-16.27,17-17.8,19.4a34.92,34.92,0,0,0-3.73,7.46c-.5,1.91-.34,11.61-.34,11.61a20.15,20.15,0,0,1,3.91-9.87c3.55-4.69,19.82-20.28,21.68-24.8s2.89-7.62,2.38-11.26C391.53,270.86,387.3,266.52,387.63,266.7Z"/><path class="cls-3" d="M370.35,234.12a27,27,0,0,1-4.06,8.84c-3.23,4.67-29.66,30.5-31,32.92s-8,11.27-5.76,18.21,2.54,6.23,2.54,6.23-2.54-6.07,3.05-14.73,28.81-30.68,31-33.45S371.37,243.65,370.35,234.12Z"/><path class="cls-3" d="M370.18,248a28.69,28.69,0,0,1-2.88,7.62c-2,3.46-28.47,28.94-30.85,33.8s-3.72,11.43-1,15.94,5.42,3.11,5.42,3.11-3.73-1.56-2.88-9.52,27.8-30.16,30-35.36A29,29,0,0,0,370.18,248Z"/><path class="cls-3" d="M379.33,258s4.24,3.12,3.39,7.63-2.2,6.24-4.06,8.84-13.39,13.87-14.92,18.36-1,13.7-1,13.7,1-5.89,3.89-9.53,14.07-14.56,16.78-18.55,2.88-8.32,3.22-10.92C385.6,262.88,384.59,258.73,379.33,258Z"/><path class="cls-3" d="M391.53,281.6a35.83,35.83,0,0,1-1.7,7.81c-1.51,4.84-17.79,21.48-21,24.43a20.23,20.23,0,0,0-4.75,7.28h6.27s13.22-13,16.27-17.16,5.59-10.23,5.59-12.14A26,26,0,0,0,391.53,281.6Z"/><polygon class="cls-2" points="256.77 354.93 256.25 361.48 362.31 322.24 465.58 360.94 465.47 354.55 361.83 310.47 256.77 354.93"/><path class="cls-2" d="M304.2,377.15l-.2-7.32s26.73-15.5,59.32-14.3S419.19,371,419.19,371l-.59,6.55c-.13,1.51-23.39-15.33-55.78-13.95C328.49,362.41,304.2,377.15,304.2,377.15Z"/><path class="cls-2" d="M307.46,381.71l.21,20.5s21.2-12.61,57.75-11.36,49.69,12.88,49.69,12.88l.56-21.6s-8.41-9.65-53.8-13.22C329.87,370.81,307.46,381.71,307.46,381.71Z"/><path class="cls-3" d="M362,405.51h0a3.85,3.85,0,0,1,3.88,3.8v40.77h-7.76V409.31A3.85,3.85,0,0,1,362,405.51Z"/><path class="cls-4" d="M317.49,383.77a3.38,3.38,0,1,1-3.3,3.38A3.34,3.34,0,0,1,317.49,383.77Z"/><path class="cls-4" d="M333,379.38a3.38,3.38,0,1,1-3.3,3.38A3.34,3.34,0,0,1,333,379.38Z"/><path class="cls-4" d="M347.88,376.67a3.38,3.38,0,1,1-3.3,3.38A3.34,3.34,0,0,1,347.88,376.67Z"/><path class="cls-4" d="M362.08,376.67a3.38,3.38,0,1,1-3.3,3.38A3.34,3.34,0,0,1,362.08,376.67Z"/><path class="cls-4" d="M377,378a3.38,3.38,0,1,1-3.31,3.38A3.33,3.33,0,0,1,377,378Z"/><path class="cls-4" d="M391.14,381.41a3.38,3.38,0,1,1-3.3,3.37A3.34,3.34,0,0,1,391.14,381.41Z"/><path class="cls-4" d="M406.33,384.78a3.38,3.38,0,1,1-3.29,3.38A3.35,3.35,0,0,1,406.33,384.78Z"/><path class="cls-3" d="M318.58,408.27h0a3.74,3.74,0,0,1,3.88,3.56v38.24H314.7V411.83A3.74,3.74,0,0,1,318.58,408.27Z"/><path class="cls-3" d="M332.94,405.72h0a3.84,3.84,0,0,1,3.88,3.78v40.6h-7.76V409.5A3.84,3.84,0,0,1,332.94,405.72Z"/><path class="cls-3" d="M347.05,402.12h0a4,4,0,0,1,3.89,4.1V450.1h-7.77V406.22A4,4,0,0,1,347.05,402.12Z"/><path class="cls-3" d="M390.6,405.72h0a3.84,3.84,0,0,1,3.88,3.78v40.6h-7.76V409.5A3.84,3.84,0,0,1,390.6,405.72Z"/><path class="cls-3" d="M405.51,408.27h0a3.74,3.74,0,0,1,3.88,3.56v38.24h-7.76V411.83A3.74,3.74,0,0,1,405.51,408.27Z"/><path class="cls-3" d="M376.12,402.52h0a4,4,0,0,1,3.88,4.05v43.5h-7.76v-43.5A4,4,0,0,1,376.12,402.52Z"/><path class="cls-5" d="M262.38,148.22v8.55H268a26.78,26.78,0,0,0,4.16-.18,3.79,3.79,0,0,0,2.18-1.29,3.94,3.94,0,0,0,.88-2.69,4.51,4.51,0,0,0-.67-2.46,4,4,0,0,0-1.89-1.48,19.45,19.45,0,0,0-5.37-.45Zm0-12.74v7.42h4a41.84,41.84,0,0,0,4.41-.13,4,4,0,0,0,2.43-1.12,3.59,3.59,0,0,0,.88-2.51,3.73,3.73,0,0,0-.75-2.41,3.4,3.4,0,0,0-2.31-1.12c-.6-.09-2.31-.13-5.16-.13Zm-6.09-5.33h12a31.91,31.91,0,0,1,5.33.31,8,8,0,0,1,3.14,1.34,8.14,8.14,0,0,1,2.31,2.69,7.62,7.62,0,0,1,.92,3.72,7.93,7.93,0,0,1-1.13,4.15,7.15,7.15,0,0,1-3.11,2.83,7.79,7.79,0,0,1,4.24,2.86,8.22,8.22,0,0,1,1.47,4.83,10.11,10.11,0,0,1-1,4.25,7.91,7.91,0,0,1-6.67,4.83c-1,.14-3.45.18-7.31.23H256.29Z"/><path class="cls-5" d="M302.48,149.52l-4.11-11.9-4.06,11.9Zm11.16,12.67h-6.58l-2.6-7.3h-12l-2.47,7.3h-6.42l11.71-32h6.41Z"/><path class="cls-5" d="M323,148.22v8.55h5.62a26.69,26.69,0,0,0,4.16-.18,3.79,3.79,0,0,0,2.18-1.29,4,4,0,0,0,.88-2.69,4.51,4.51,0,0,0-.67-2.46,4,4,0,0,0-1.89-1.48,19.45,19.45,0,0,0-5.37-.45Zm0-12.74v7.42h4a41.33,41.33,0,0,0,4.4-.13,4,4,0,0,0,2.44-1.12,3.59,3.59,0,0,0,.88-2.51,3.74,3.74,0,0,0-.76-2.41,3.4,3.4,0,0,0-2.3-1.12c-.6-.09-2.31-.13-5.17-.13Zm-6.08-5.33h12a31.7,31.7,0,0,1,5.32.31,7.94,7.94,0,0,1,3.15,1.34,8.14,8.14,0,0,1,2.31,2.69,7.73,7.73,0,0,1,.92,3.72,7.93,7.93,0,0,1-1.13,4.15,7.21,7.21,0,0,1-3.11,2.83,7.79,7.79,0,0,1,4.24,2.86,8.28,8.28,0,0,1,1.46,4.83,10,10,0,0,1-1,4.25,7.91,7.91,0,0,1-6.67,4.83c-1,.14-3.44.18-7.29.23H316.88Z"/><path class="cls-5" d="M366.38,150.42l5.88,2c-.92,3.49-2.39,6.08-4.49,7.78a12.33,12.33,0,0,1-8,2.55,12.54,12.54,0,0,1-9.85-4.34c-2.56-2.91-3.86-6.89-3.86-11.94,0-5.33,1.3-9.45,3.9-12.4a12.81,12.81,0,0,1,10.15-4.43,12.09,12.09,0,0,1,9,3.49,12.8,12.8,0,0,1,3.06,5.86l-6,1.57A6.52,6.52,0,0,0,364,136.6a6.06,6.06,0,0,0-4.11-1.49,6.54,6.54,0,0,0-5.41,2.6c-1.39,1.7-2.1,4.43-2.1,8.28,0,4,.71,6.93,2.06,8.63a6.57,6.57,0,0,0,5.32,2.6,5.89,5.89,0,0,0,4.16-1.66A9.59,9.59,0,0,0,366.38,150.42Z"/><path class="cls-5" d="M382.46,146.16c0,3.64.79,6.36,2.39,8.24a7.7,7.7,0,0,0,11.91,0c1.55-1.84,2.31-4.6,2.31-8.32s-.76-6.44-2.22-8.23a8,8,0,0,0-12.09,0c-1.51,1.83-2.3,4.57-2.3,8.27Zm-6.21.19a21.28,21.28,0,0,1,1.33-8.19,16,16,0,0,1,2.82-4.38,11.61,11.61,0,0,1,3.86-2.91,15.61,15.61,0,0,1,6.5-1.26A13.71,13.71,0,0,1,401.38,134c2.64,2.91,4,7,4,12.22s-1.34,9.21-3.94,12.11a13.6,13.6,0,0,1-10.57,4.39c-4.49,0-8-1.43-10.66-4.34S376.25,151.45,376.25,146.35Z"/><path class="cls-5" d="M429.3,150.42l5.88,2c-.93,3.49-2.39,6.08-4.49,7.78a12.32,12.32,0,0,1-8,2.55,12.55,12.55,0,0,1-9.86-4.34c-2.56-2.91-3.86-6.89-3.86-11.94,0-5.33,1.3-9.45,3.9-12.4a12.82,12.82,0,0,1,10.15-4.43,12.09,12.09,0,0,1,9,3.49,12.8,12.8,0,0,1,3.06,5.86l-6,1.57a6.5,6.5,0,0,0-2.22-3.93,6,6,0,0,0-4.11-1.49,6.55,6.55,0,0,0-5.41,2.6c-1.39,1.7-2.1,4.43-2.1,8.28,0,4,.71,6.93,2.06,8.63a6.57,6.57,0,0,0,5.32,2.6,5.87,5.87,0,0,0,4.16-1.66A9.59,9.59,0,0,0,429.3,150.42Z"/><polygon class="cls-5" points="440.47 162.19 440.47 130.15 446.51 130.15 446.51 144.38 458.76 130.15 466.94 130.15 455.61 142.63 467.53 162.19 459.68 162.19 451.46 147.15 446.51 152.52 446.51 162.19 440.47 162.19"/><path class="cls-5" d="M256.87,168.6h5v14.21a27.33,27.33,0,0,0,.21,4.36,4.28,4.28,0,0,0,1.51,2.6,5,5,0,0,0,3.27,1,4.82,4.82,0,0,0,3.21-.95,3.47,3.47,0,0,0,1.3-2.23,32.66,32.66,0,0,0,.22-4.48V168.6h5v13.77a36.89,36.89,0,0,1-.42,6.67,7.37,7.37,0,0,1-1.48,3.3,7.48,7.48,0,0,1-2.89,2.12,11.62,11.62,0,0,1-4.75.81,12.9,12.9,0,0,1-5.37-.88,7.22,7.22,0,0,1-2.86-2.24,7.5,7.5,0,0,1-1.42-2.89,35.38,35.38,0,0,1-.48-6.67Z"/><polygon class="cls-5" points="282.4 194.83 282.4 168.59 287.26 168.59 297.35 186.11 297.35 168.59 301.97 168.59 301.97 194.83 296.97 194.83 287.05 177.71 287.05 194.83 282.4 194.83"/><path class="cls-5" d="M323.68,194.83l-8.82-26.23h5.4L326.5,188l6.06-19.42h5.27L329,194.83Zm-16-26.23h5v26.23h-5Z"/><polygon class="cls-5" points="341.55 194.83 341.55 168.59 359.85 168.59 359.85 173.03 346.52 173.03 346.52 178.85 358.92 178.85 358.92 183.25 346.52 183.25 346.52 190.4 360.29 190.4 360.29 194.83 341.55 194.83"/><path class="cls-5" d="M370.11,179.69h3.68a17.93,17.93,0,0,0,4.48-.32,2.78,2.78,0,0,0,1.38-1.1,3.54,3.54,0,0,0,.52-2,3.4,3.4,0,0,0-.66-2.13,2.94,2.94,0,0,0-1.89-1A30.44,30.44,0,0,0,374,173h-3.89v6.66Zm-5,15.14V168.6h10.51a17.63,17.63,0,0,1,5.71.69,5.86,5.86,0,0,1,2.9,2.53A8.17,8.17,0,0,1,385.3,176a7.25,7.25,0,0,1-1.65,4.87,7.49,7.49,0,0,1-4.86,2.42,10.89,10.89,0,0,1,2.65,2.2,27.65,27.65,0,0,1,2.83,4.25l3,5.13h-6l-3.58-5.71a34.08,34.08,0,0,0-2.66-3.86,3.78,3.78,0,0,0-1.47-1.09,8,8,0,0,0-2.52-.3h-1v11Z"/><path class="cls-5" d="M389.31,186.29l4.86-.51a6.16,6.16,0,0,0,1.75,3.81,6.15,6.15,0,0,0,7.23.15,3.29,3.29,0,0,0,1.24-2.53,2.44,2.44,0,0,0-.52-1.58,3.82,3.82,0,0,0-1.79-1.14c-.58-.21-1.92-.62-4-1.17a13,13,0,0,1-5.61-2.56,7.22,7.22,0,0,1-1.21-9,6.9,6.9,0,0,1,3.07-2.64,11.51,11.51,0,0,1,4.85-.91c3.11,0,5.44.73,7,2.16a7.87,7.87,0,0,1,2.47,5.79l-5,.21a4.48,4.48,0,0,0-1.37-2.89,4.78,4.78,0,0,0-3.14-.88,5.62,5.62,0,0,0-3.41.91,2,2,0,0,0-.79,1.66,2,2,0,0,0,.76,1.57c.62.59,2.13,1.18,4.57,1.76a23.5,23.5,0,0,1,5.37,1.9,7.21,7.21,0,0,1,2.73,2.64,8.31,8.31,0,0,1,1,4.18,8.13,8.13,0,0,1-1.17,4.25,7.18,7.18,0,0,1-3.34,2.9,12.79,12.79,0,0,1-5.34,1c-3.13,0-5.51-.78-7.19-2.31A10.44,10.44,0,0,1,389.31,186.29Z"/><path class="cls-5" d="M429.27,194.83V173H422V168.6h19.56V173h-7.27v21.8ZM414,168.6h5v26.23h-5Z"/><polygon class="cls-5" points="452.41 194.83 452.41 183.8 443.36 168.59 449.21 168.59 455.03 178.97 460.71 168.59 466.43 168.59 457.38 183.84 457.38 194.83 452.41 194.83"/><rect class="cls-6" x="490.21" y="122.36" width="14.62" height="79.09"/><path class="cls-5" d="M404,242.45a4.41,4.41,0,0,0,1,3.1,3.42,3.42,0,0,0,2.61,1.12,3.38,3.38,0,0,0,2.62-1.14,4.64,4.64,0,0,0,1-3.25,5.7,5.7,0,0,0-.44-2.31,3.49,3.49,0,0,0-1.3-1.53,3.42,3.42,0,0,0-1.89-.54,3.53,3.53,0,0,0-2.58,1,4.67,4.67,0,0,0-1.09,3.5Zm-1.47,0a5.91,5.91,0,0,1,1.44-4.23,4.82,4.82,0,0,1,3.69-1.54,5,5,0,0,1,2.67.74,4.5,4.5,0,0,1,1.8,2,6.48,6.48,0,0,1,.63,2.91,6.71,6.71,0,0,1-.65,3,4.64,4.64,0,0,1-1.85,2,5.38,5.38,0,0,1-2.6.67,4.87,4.87,0,0,1-2.71-.75,4.74,4.74,0,0,1-1.8-2,6.23,6.23,0,0,1-.62-2.72Zm-10.36,5.29V236.85h1.45l5.61,8.53v-8.53h1.37v10.86h-1.45l-5.62-8.53v8.53Zm-10,0V236.85h1.42v5.39l5.31-5.39h1.9l-4.47,4.4,4.67,6.46h-1.87l-3.8-5.49L383.64,244v3.76Z"/><path class="cls-5" d="M437.05,247.71V236.85h7.73v1.29h-6.32v3.32h5.91v1.28h-5.91v3.68H445v1.29Zm-8.4,0V236.85h1.42v9.57h5.27v1.29Zm-12.16,0-2.83-10.86h1.44l1.63,7.12c.18.74.33,1.49.46,2.23.27-1.17.44-1.84.48-2l2-7.33h1.7l1.54,5.49a32.64,32.64,0,0,1,.84,3.86c.12-.68.31-1.47.52-2.37l1.67-7h1.43l-2.94,10.86H423.1l-2.25-8.26c-.19-.7-.3-1.13-.33-1.28-.12.49-.22.92-.31,1.28l-2.28,8.26Z"/><path class="cls-5" d="M469.39,247.71V236.85h7.73v1.29h-6.31v3.32h5.91v1.28h-5.91v3.68h6.56v1.29Zm-6.64-4.26v-1.27h4.52v4a8.26,8.26,0,0,1-2.15,1.28,6.29,6.29,0,0,1-2.26.42,6,6,0,0,1-2.87-.69,4.53,4.53,0,0,1-1.94-2,6.31,6.31,0,0,1-.66-2.9,6.81,6.81,0,0,1,.66-3,4.33,4.33,0,0,1,1.88-2,5.79,5.79,0,0,1,2.82-.67,5.4,5.4,0,0,1,2.09.38,3.38,3.38,0,0,1,1.46,1.06,4.77,4.77,0,0,1,.82,1.77l-1.29.36a3.88,3.88,0,0,0-.59-1.29,2.32,2.32,0,0,0-1-.76,3.62,3.62,0,0,0-1.48-.29,4,4,0,0,0-1.67.31,2.92,2.92,0,0,0-1.15.79,3.82,3.82,0,0,0-.68,1.07,5.91,5.91,0,0,0-.4,2.18,5.24,5.24,0,0,0,.5,2.43,3.09,3.09,0,0,0,1.43,1.45,4.43,4.43,0,0,0,2,.48,4.52,4.52,0,0,0,1.79-.37,5,5,0,0,0,1.33-.77v-2Zm-14.36,3h2.28a5.28,5.28,0,0,0,1.66-.2,2.32,2.32,0,0,0,.95-.55,3.45,3.45,0,0,0,.8-1.37,7.12,7.12,0,0,0,.26-2.1,5.23,5.23,0,0,0-.53-2.62,3,3,0,0,0-1.34-1.23,5.78,5.78,0,0,0-1.84-.21h-2.24v8.28ZM447,247.71V236.85h3.69a9.73,9.73,0,0,1,1.89.15,3.59,3.59,0,0,1,1.57.79,4.61,4.61,0,0,1,1.27,1.85,7.39,7.39,0,0,1,.42,2.58,7.78,7.78,0,0,1-.28,2.2,5.53,5.53,0,0,1-.74,1.58,4.32,4.32,0,0,1-1,1,3.89,3.89,0,0,1-1.28.54,6.94,6.94,0,0,1-1.72.18Z"/><polygon class="cls-5" points="393.29 263.89 393.29 254.32 389.78 254.32 389.78 253.03 398.25 253.03 398.25 254.32 394.7 254.32 394.7 263.89 393.29 263.89"/><path class="cls-5" d="M423.69,263.89v-9.57h-3.51V253h8.47v1.29h-3.54v9.57ZM417.21,253h1.42v6.27a7.32,7.32,0,0,1-.37,2.6,3,3,0,0,1-1.32,1.57,4.5,4.5,0,0,1-2.49.6,5,5,0,0,1-2.47-.53,3,3,0,0,1-1.35-1.51,7.46,7.46,0,0,1-.4-2.73V253h1.4v6.26a6.43,6.43,0,0,0,.26,2.1,2,2,0,0,0,.89,1,3.09,3.09,0,0,0,1.55.36,2.84,2.84,0,0,0,2.22-.73,4.21,4.21,0,0,0,.66-2.76V253Zm-16.36,4.79h3a4.77,4.77,0,0,0,1.52-.19,1.65,1.65,0,0,0,.82-.66,1.72,1.72,0,0,0,.29-1,1.63,1.63,0,0,0-.56-1.25,2.47,2.47,0,0,0-1.73-.5h-3.39v3.59Zm-1.4,6.07V253h4.73a6.84,6.84,0,0,1,2.19.28,2.54,2.54,0,0,1,1.17,1A3.12,3.12,0,0,1,408,256a2.75,2.75,0,0,1-.72,2,3.62,3.62,0,0,1-2.29,1,3.47,3.47,0,0,1,.85.55,7,7,0,0,1,1.18,1.44l1.87,3h-1.8l-1.4-2.26c-.42-.65-.76-1.15-1-1.5a3.12,3.12,0,0,0-.71-.71,1.8,1.8,0,0,0-.64-.31,4.88,4.88,0,0,0-.8-.05h-1.64v4.83Z"/><polygon class="cls-5" points="430.14 263.89 430.14 253.03 431.56 253.03 431.56 257.49 437.11 257.49 437.11 253.03 438.53 253.03 438.53 263.89 437.11 263.89 437.11 258.78 431.56 258.78 431.56 263.89 430.14 263.89"/><path class="cls-5" d="M408.86,280.06V269.2h7.73v1.29h-6.32v3.32h5.92v1.28h-5.92v3.68h6.56v1.29Zm-10.47-3.48,1.33-.13a3,3,0,0,0,.45,1.34,2.27,2.27,0,0,0,1.08.85,4,4,0,0,0,1.64.32,3.62,3.62,0,0,0,1.41-.25,1.91,1.91,0,0,0,.93-.66,1.53,1.53,0,0,0,.31-.93,1.44,1.44,0,0,0-.3-.9,2.11,2.11,0,0,0-.95-.63,14.5,14.5,0,0,0-1.9-.53,10,10,0,0,1-2.07-.68,3,3,0,0,1-1.15-1,2.58,2.58,0,0,1-.37-1.35,2.86,2.86,0,0,1,.46-1.54,2.9,2.9,0,0,1,1.34-1.08,5,5,0,0,1,2-.37,5.14,5.14,0,0,1,2.1.39,3.08,3.08,0,0,1,1.39,1.14,3.26,3.26,0,0,1,.53,1.72l-1.35.1a2.26,2.26,0,0,0-.75-1.56,2.83,2.83,0,0,0-1.86-.54,3,3,0,0,0-1.87.49,1.44,1.44,0,0,0-.58,1.16,1.22,1.22,0,0,0,.41,1,5.59,5.59,0,0,0,2.13.77,16,16,0,0,1,2.37.69,3.56,3.56,0,0,1,1.38,1.11,2.79,2.79,0,0,1,.45,1.55,2.89,2.89,0,0,1-.5,1.62,3.3,3.3,0,0,1-1.4,1.2,4.78,4.78,0,0,1-2.06.43,6.06,6.06,0,0,1-2.44-.43,3.45,3.45,0,0,1-1.53-1.29A3.66,3.66,0,0,1,398.39,276.58Z"/><path class="cls-5" d="M432.61,280.06l-4.15-10.86H430l2.78,7.88c.23.65.42,1.24.57,1.79.16-.6.35-1.19.56-1.79l2.9-7.88h1.43l-4.18,10.86ZM420.21,274h3.05a4.51,4.51,0,0,0,1.52-.2,1.64,1.64,0,0,0,.82-.66,1.78,1.78,0,0,0,.28-1,1.62,1.62,0,0,0-.55-1.26,2.52,2.52,0,0,0-1.73-.5h-3.39V274Zm-1.4,6.06V269.2h4.73a6.46,6.46,0,0,1,2.18.29,2.42,2.42,0,0,1,1.18,1,3.07,3.07,0,0,1,.44,1.63,2.73,2.73,0,0,1-.73,2,3.67,3.67,0,0,1-2.28,1,3.48,3.48,0,0,1,.85.54,7.28,7.28,0,0,1,1.18,1.44l1.87,3h-1.79L425,277.8c-.42-.65-.76-1.15-1-1.49a3.21,3.21,0,0,0-.72-.72,2,2,0,0,0-.64-.31,6.56,6.56,0,0,0-.79,0h-1.64v4.82Z"/><path class="cls-5" d="M454.2,280.06V269.2h7.73v1.29h-6.31v3.32h5.91v1.28h-5.91v3.68h6.55v1.29Zm-3.18-3.8,1.42.36a5,5,0,0,1-1.6,2.71,4.41,4.41,0,0,1-2.83.92,5.07,5.07,0,0,1-2.81-.72,4.37,4.37,0,0,1-1.64-2.06,7.66,7.66,0,0,1-.57-2.91,6.37,6.37,0,0,1,.64-3,4.46,4.46,0,0,1,1.81-1.93A5.25,5.25,0,0,1,448,269a4.12,4.12,0,0,1,4.2,3.15l-1.38.34a3.26,3.26,0,0,0-1.08-1.72,2.85,2.85,0,0,0-1.77-.55,3.49,3.49,0,0,0-2.06.6,3.13,3.13,0,0,0-1.16,1.62,6.39,6.39,0,0,0-.33,2.09,6.69,6.69,0,0,0,.38,2.42,2.93,2.93,0,0,0,1.24,1.53,3.35,3.35,0,0,0,1.82.52,3,3,0,0,0,2-.7,3.58,3.58,0,0,0,1.11-2.06Zm-11.54-7.06h1.42v10.86h-1.42V269.2Zm0,10.86v0Z"/><polygon class="cls-3" points="276.04 363.86 361.58 333.93 447.7 365.05 446.56 370.79 360.99 344.22 276.04 369.81 276.04 363.86"/><path class="cls-3" d="M370.29,218.49a17.69,17.69,0,0,1-2.92,8.07c-9.52,12.86-27,27.18-35.31,38.64a23,23,0,0,0-4.36,13.44,52.69,52.69,0,0,0,1.12,8.83s-1.3-6.34,3.49-13.39c11-16.23,34.95-32.67,37.64-43.41C370.29,225.86,370.29,218.49,370.29,218.49Z"/><path class="cls-3" d="M387.63,266.7a39.7,39.7,0,0,1,.86,7.45c-.17,2.43-2.21,5.72-4.07,8.67s-16.27,17-17.8,19.4a34.92,34.92,0,0,0-3.73,7.46c-.5,1.91-.34,11.61-.34,11.61a20.15,20.15,0,0,1,3.91-9.87c3.55-4.69,19.82-20.28,21.68-24.8s2.89-7.62,2.38-11.26C391.53,270.86,387.3,266.52,387.63,266.7Z"/><path class="cls-3" d="M370.35,234.12a27,27,0,0,1-4.06,8.84c-3.23,4.67-29.66,30.5-31,32.92s-8,11.27-5.76,18.21,2.54,6.23,2.54,6.23-2.54-6.07,3.05-14.73,28.81-30.68,31-33.45S371.37,243.65,370.35,234.12Z"/><path class="cls-3" d="M370.18,248a28.69,28.69,0,0,1-2.88,7.62c-2,3.46-28.47,28.94-30.85,33.8s-3.72,11.43-1,15.94,5.42,3.11,5.42,3.11-3.73-1.56-2.88-9.52,27.8-30.16,30-35.36A29,29,0,0,0,370.18,248Z"/><path class="cls-3" d="M379.33,258s4.24,3.12,3.39,7.63-2.2,6.24-4.06,8.84-13.39,13.87-14.92,18.36-1,13.7-1,13.7,1-5.89,3.89-9.53,14.07-14.56,16.78-18.55,2.88-8.32,3.22-10.92C385.6,262.88,384.59,258.73,379.33,258Z"/><path class="cls-3" d="M391.53,281.6a35.83,35.83,0,0,1-1.7,7.81c-1.51,4.84-17.79,21.48-21,24.43a20.23,20.23,0,0,0-4.75,7.28h6.27s13.22-13,16.27-17.16,5.59-10.23,5.59-12.14A26,26,0,0,0,391.53,281.6Z"/><polygon class="cls-3" points="256.77 354.93 256.25 361.48 362.31 322.24 465.58 360.94 465.47 354.55 361.83 310.47 256.77 354.93"/><path class="cls-2" d="M304.2,377.15l-.2-7.32s26.73-15.5,59.32-14.3S419.19,371,419.19,371l-.59,6.55c-.13,1.51-23.39-15.33-55.78-13.95C328.49,362.41,304.2,377.15,304.2,377.15Z"/><path class="cls-3" d="M307.46,381.71l.21,20.5s21.2-12.61,57.75-11.36,49.69,12.88,49.69,12.88l.56-21.6s-8.41-9.65-53.8-13.22C329.87,370.81,307.46,381.71,307.46,381.71Z"/><path class="cls-3" d="M362,397.88a3.85,3.85,0,0,1,3.88,3.8v48.4h-7.76v-48.4A3.86,3.86,0,0,1,362,397.88Z"/><path class="cls-7" d="M317.49,383.77a3.38,3.38,0,1,1-3.3,3.38A3.34,3.34,0,0,1,317.49,383.77Z"/><path class="cls-7" d="M333,379.38a3.38,3.38,0,1,1-3.3,3.38A3.34,3.34,0,0,1,333,379.38Z"/><path class="cls-7" d="M347.88,376.67a3.38,3.38,0,1,1-3.3,3.38A3.34,3.34,0,0,1,347.88,376.67Z"/><path class="cls-7" d="M362.08,376.67a3.38,3.38,0,1,1-3.3,3.38A3.34,3.34,0,0,1,362.08,376.67Z"/><path class="cls-7" d="M377,378a3.38,3.38,0,1,1-3.31,3.38A3.33,3.33,0,0,1,377,378Z"/><path class="cls-7" d="M391.14,381.41a3.38,3.38,0,1,1-3.3,3.37A3.34,3.34,0,0,1,391.14,381.41Z"/><path class="cls-7" d="M406.33,384.78a3.38,3.38,0,1,1-3.29,3.38A3.35,3.35,0,0,1,406.33,384.78Z"/><path class="cls-3" d="M318.58,408.27h0a3.74,3.74,0,0,1,3.88,3.56v38.24H314.7V411.83A3.74,3.74,0,0,1,318.58,408.27Z"/><path class="cls-3" d="M332.94,405.72h0a3.84,3.84,0,0,1,3.88,3.78v40.6h-7.76V409.5A3.84,3.84,0,0,1,332.94,405.72Z"/><path class="cls-3" d="M347.05,402.12h0a4,4,0,0,1,3.89,4.1V450.1h-7.77V406.22A4,4,0,0,1,347.05,402.12Z"/><path class="cls-3" d="M390.6,405.72h0a3.84,3.84,0,0,1,3.88,3.78v40.6h-7.76V409.5A3.84,3.84,0,0,1,390.6,405.72Z"/><path class="cls-3" d="M405.51,408.27h0a3.74,3.74,0,0,1,3.88,3.56v38.24h-7.76V411.83A3.74,3.74,0,0,1,405.51,408.27Z"/><path class="cls-3" d="M376.12,402.52h0a4,4,0,0,1,3.88,4.05v43.5h-7.76v-43.5A4,4,0,0,1,376.12,402.52Z"/><path class="cls-5" d="M262.38,148.22v8.55H268a26.78,26.78,0,0,0,4.16-.18,3.79,3.79,0,0,0,2.18-1.29,3.94,3.94,0,0,0,.88-2.69,4.51,4.51,0,0,0-.67-2.46,4,4,0,0,0-1.89-1.48,19.45,19.45,0,0,0-5.37-.45Zm0-12.74v7.42h4a41.84,41.84,0,0,0,4.41-.13,4,4,0,0,0,2.43-1.12,3.59,3.59,0,0,0,.88-2.51,3.73,3.73,0,0,0-.75-2.41,3.4,3.4,0,0,0-2.31-1.12c-.6-.09-2.31-.13-5.16-.13Zm-6.09-5.33h12a31.91,31.91,0,0,1,5.33.31,8,8,0,0,1,3.14,1.34,8.14,8.14,0,0,1,2.31,2.69,7.62,7.62,0,0,1,.92,3.72,7.93,7.93,0,0,1-1.13,4.15,7.15,7.15,0,0,1-3.11,2.83,7.79,7.79,0,0,1,4.24,2.86,8.22,8.22,0,0,1,1.47,4.83,10.11,10.11,0,0,1-1,4.25,7.91,7.91,0,0,1-6.67,4.83c-1,.14-3.45.18-7.31.23H256.29Z"/><path class="cls-5" d="M302.48,149.52l-4.11-11.9-4.06,11.9Zm11.16,12.67h-6.58l-2.6-7.3h-12l-2.47,7.3h-6.42l11.71-32h6.41Z"/><path class="cls-5" d="M323,148.22v8.55h5.62a26.69,26.69,0,0,0,4.16-.18,3.79,3.79,0,0,0,2.18-1.29,4,4,0,0,0,.88-2.69,4.51,4.51,0,0,0-.67-2.46,4,4,0,0,0-1.89-1.48,19.45,19.45,0,0,0-5.37-.45Zm0-12.74v7.42h4a41.33,41.33,0,0,0,4.4-.13,4,4,0,0,0,2.44-1.12,3.59,3.59,0,0,0,.88-2.51,3.74,3.74,0,0,0-.76-2.41,3.4,3.4,0,0,0-2.3-1.12c-.6-.09-2.31-.13-5.17-.13Zm-6.08-5.33h12a31.7,31.7,0,0,1,5.32.31,7.94,7.94,0,0,1,3.15,1.34,8.14,8.14,0,0,1,2.31,2.69,7.73,7.73,0,0,1,.92,3.72,7.93,7.93,0,0,1-1.13,4.15,7.21,7.21,0,0,1-3.11,2.83,7.79,7.79,0,0,1,4.24,2.86,8.28,8.28,0,0,1,1.46,4.83,10,10,0,0,1-1,4.25,7.91,7.91,0,0,1-6.67,4.83c-1,.14-3.44.18-7.29.23H316.88Z"/><path class="cls-5" d="M366.38,150.42l5.88,2c-.92,3.49-2.39,6.08-4.49,7.78a12.33,12.33,0,0,1-8,2.55,12.54,12.54,0,0,1-9.85-4.34c-2.56-2.91-3.86-6.89-3.86-11.94,0-5.33,1.3-9.45,3.9-12.4a12.81,12.81,0,0,1,10.15-4.43,12.09,12.09,0,0,1,9,3.49,12.8,12.8,0,0,1,3.06,5.86l-6,1.57A6.52,6.52,0,0,0,364,136.6a6.06,6.06,0,0,0-4.11-1.49,6.54,6.54,0,0,0-5.41,2.6c-1.39,1.7-2.1,4.43-2.1,8.28,0,4,.71,6.93,2.06,8.63a6.57,6.57,0,0,0,5.32,2.6,5.89,5.89,0,0,0,4.16-1.66A9.59,9.59,0,0,0,366.38,150.42Z"/><path class="cls-5" d="M382.46,146.16c0,3.64.79,6.36,2.39,8.24a7.7,7.7,0,0,0,11.91,0c1.55-1.84,2.31-4.6,2.31-8.32s-.76-6.44-2.22-8.23a8,8,0,0,0-12.09,0c-1.51,1.83-2.3,4.57-2.3,8.27Zm-6.21.19a21.28,21.28,0,0,1,1.33-8.19,16,16,0,0,1,2.82-4.38,11.61,11.61,0,0,1,3.86-2.91,15.61,15.61,0,0,1,6.5-1.26A13.71,13.71,0,0,1,401.38,134c2.64,2.91,4,7,4,12.22s-1.34,9.21-3.94,12.11a13.6,13.6,0,0,1-10.57,4.39c-4.49,0-8-1.43-10.66-4.34S376.25,151.45,376.25,146.35Z"/><path class="cls-5" d="M429.3,150.42l5.88,2c-.93,3.49-2.39,6.08-4.49,7.78a12.32,12.32,0,0,1-8,2.55,12.55,12.55,0,0,1-9.86-4.34c-2.56-2.91-3.86-6.89-3.86-11.94,0-5.33,1.3-9.45,3.9-12.4a12.82,12.82,0,0,1,10.15-4.43,12.09,12.09,0,0,1,9,3.49,12.8,12.8,0,0,1,3.06,5.86l-6,1.57a6.5,6.5,0,0,0-2.22-3.93,6,6,0,0,0-4.11-1.49,6.55,6.55,0,0,0-5.41,2.6c-1.39,1.7-2.1,4.43-2.1,8.28,0,4,.71,6.93,2.06,8.63a6.57,6.57,0,0,0,5.32,2.6,5.87,5.87,0,0,0,4.16-1.66A9.59,9.59,0,0,0,429.3,150.42Z"/><polygon class="cls-5" points="440.47 162.19 440.47 130.15 446.51 130.15 446.51 144.38 458.76 130.15 466.94 130.15 455.61 142.63 467.53 162.19 459.68 162.19 451.46 147.15 446.51 152.52 446.51 162.19 440.47 162.19"/><path class="cls-5" d="M256.87,168.6h5v14.21a27.33,27.33,0,0,0,.21,4.36,4.28,4.28,0,0,0,1.51,2.6,5,5,0,0,0,3.27,1,4.82,4.82,0,0,0,3.21-.95,3.47,3.47,0,0,0,1.3-2.23,32.66,32.66,0,0,0,.22-4.48V168.6h5v13.77a36.89,36.89,0,0,1-.42,6.67,7.37,7.37,0,0,1-1.48,3.3,7.48,7.48,0,0,1-2.89,2.12,11.62,11.62,0,0,1-4.75.81,12.9,12.9,0,0,1-5.37-.88,7.22,7.22,0,0,1-2.86-2.24,7.5,7.5,0,0,1-1.42-2.89,35.38,35.38,0,0,1-.48-6.67Z"/><polygon class="cls-5" points="282.4 194.83 282.4 168.59 287.26 168.59 297.35 186.11 297.35 168.59 301.97 168.59 301.97 194.83 296.97 194.83 287.05 177.71 287.05 194.83 282.4 194.83"/><path class="cls-5" d="M323.68,194.83l-8.82-26.23h5.4L326.5,188l6.06-19.42h5.27L329,194.83Zm-16-26.23h5v26.23h-5Z"/><polygon class="cls-5" points="341.55 194.83 341.55 168.59 359.85 168.59 359.85 173.03 346.52 173.03 346.52 178.85 358.92 178.85 358.92 183.25 346.52 183.25 346.52 190.4 360.29 190.4 360.29 194.83 341.55 194.83"/><path class="cls-5" d="M370.11,179.69h3.68a17.93,17.93,0,0,0,4.48-.32,2.78,2.78,0,0,0,1.38-1.1,3.54,3.54,0,0,0,.52-2,3.4,3.4,0,0,0-.66-2.13,2.94,2.94,0,0,0-1.89-1A30.44,30.44,0,0,0,374,173h-3.89v6.66Zm-5,15.14V168.6h10.51a17.63,17.63,0,0,1,5.71.69,5.86,5.86,0,0,1,2.9,2.53A8.17,8.17,0,0,1,385.3,176a7.25,7.25,0,0,1-1.65,4.87,7.49,7.49,0,0,1-4.86,2.42,10.89,10.89,0,0,1,2.65,2.2,27.65,27.65,0,0,1,2.83,4.25l3,5.13h-6l-3.58-5.71a34.08,34.08,0,0,0-2.66-3.86,3.78,3.78,0,0,0-1.47-1.09,8,8,0,0,0-2.52-.3h-1v11Z"/><path class="cls-5" d="M389.31,186.29l4.86-.51a6.16,6.16,0,0,0,1.75,3.81,6.15,6.15,0,0,0,7.23.15,3.29,3.29,0,0,0,1.24-2.53,2.44,2.44,0,0,0-.52-1.58,3.82,3.82,0,0,0-1.79-1.14c-.58-.21-1.92-.62-4-1.17a13,13,0,0,1-5.61-2.56,7.22,7.22,0,0,1-1.21-9,6.9,6.9,0,0,1,3.07-2.64,11.51,11.51,0,0,1,4.85-.91c3.11,0,5.44.73,7,2.16a7.87,7.87,0,0,1,2.47,5.79l-5,.21a4.48,4.48,0,0,0-1.37-2.89,4.78,4.78,0,0,0-3.14-.88,5.62,5.62,0,0,0-3.41.91,2,2,0,0,0-.79,1.66,2,2,0,0,0,.76,1.57c.62.59,2.13,1.18,4.57,1.76a23.5,23.5,0,0,1,5.37,1.9,7.21,7.21,0,0,1,2.73,2.64,8.31,8.31,0,0,1,1,4.18,8.13,8.13,0,0,1-1.17,4.25,7.18,7.18,0,0,1-3.34,2.9,12.79,12.79,0,0,1-5.34,1c-3.13,0-5.51-.78-7.19-2.31A10.44,10.44,0,0,1,389.31,186.29Z"/><path class="cls-5" d="M429.27,194.83V173H422V168.6h19.56V173h-7.27v21.8ZM414,168.6h5v26.23h-5Z"/><polygon class="cls-5" points="452.41 194.83 452.41 183.8 443.36 168.59 449.21 168.59 455.03 178.97 460.71 168.59 466.43 168.59 457.38 183.84 457.38 194.83 452.41 194.83"/><rect class="cls-8" x="490.21" y="122.36" width="14.62" height="79.09"/><path class="cls-5" d="M404,242.45a4.41,4.41,0,0,0,1,3.1,3.42,3.42,0,0,0,2.61,1.12,3.38,3.38,0,0,0,2.62-1.14,4.64,4.64,0,0,0,1-3.25,5.7,5.7,0,0,0-.44-2.31,3.49,3.49,0,0,0-1.3-1.53,3.42,3.42,0,0,0-1.89-.54,3.53,3.53,0,0,0-2.58,1,4.67,4.67,0,0,0-1.09,3.5Zm-1.47,0a5.91,5.91,0,0,1,1.44-4.23,4.82,4.82,0,0,1,3.69-1.54,5,5,0,0,1,2.67.74,4.5,4.5,0,0,1,1.8,2,6.48,6.48,0,0,1,.63,2.91,6.71,6.71,0,0,1-.65,3,4.64,4.64,0,0,1-1.85,2,5.38,5.38,0,0,1-2.6.67,4.87,4.87,0,0,1-2.71-.75,4.74,4.74,0,0,1-1.8-2,6.23,6.23,0,0,1-.62-2.72Zm-10.36,5.29V236.85h1.45l5.61,8.53v-8.53h1.37v10.86h-1.45l-5.62-8.53v8.53Zm-10,0V236.85h1.42v5.39l5.31-5.39h1.9l-4.47,4.4,4.67,6.46h-1.87l-3.8-5.49L383.64,244v3.76Z"/><path class="cls-5" d="M437.05,247.71V236.85h7.73v1.29h-6.32v3.32h5.91v1.28h-5.91v3.68H445v1.29Zm-8.4,0V236.85h1.42v9.57h5.27v1.29Zm-12.16,0-2.83-10.86h1.44l1.63,7.12c.18.74.33,1.49.46,2.23.27-1.17.44-1.84.48-2l2-7.33h1.7l1.54,5.49a32.64,32.64,0,0,1,.84,3.86c.12-.68.31-1.47.52-2.37l1.67-7h1.43l-2.94,10.86H423.1l-2.25-8.26c-.19-.7-.3-1.13-.33-1.28-.12.49-.22.92-.31,1.28l-2.28,8.26Z"/><path class="cls-5" d="M469.39,247.71V236.85h7.73v1.29h-6.31v3.32h5.91v1.28h-5.91v3.68h6.56v1.29Zm-6.64-4.26v-1.27h4.52v4a8.26,8.26,0,0,1-2.15,1.28,6.29,6.29,0,0,1-2.26.42,6,6,0,0,1-2.87-.69,4.53,4.53,0,0,1-1.94-2,6.31,6.31,0,0,1-.66-2.9,6.81,6.81,0,0,1,.66-3,4.33,4.33,0,0,1,1.88-2,5.79,5.79,0,0,1,2.82-.67,5.4,5.4,0,0,1,2.09.38,3.38,3.38,0,0,1,1.46,1.06,4.77,4.77,0,0,1,.82,1.77l-1.29.36a3.88,3.88,0,0,0-.59-1.29,2.32,2.32,0,0,0-1-.76,3.62,3.62,0,0,0-1.48-.29,4,4,0,0,0-1.67.31,2.92,2.92,0,0,0-1.15.79,3.82,3.82,0,0,0-.68,1.07,5.91,5.91,0,0,0-.4,2.18,5.24,5.24,0,0,0,.5,2.43,3.09,3.09,0,0,0,1.43,1.45,4.43,4.43,0,0,0,2,.48,4.52,4.52,0,0,0,1.79-.37,5,5,0,0,0,1.33-.77v-2Zm-14.36,3h2.28a5.28,5.28,0,0,0,1.66-.2,2.32,2.32,0,0,0,.95-.55,3.45,3.45,0,0,0,.8-1.37,7.12,7.12,0,0,0,.26-2.1,5.23,5.23,0,0,0-.53-2.62,3,3,0,0,0-1.34-1.23,5.78,5.78,0,0,0-1.84-.21h-2.24v8.28ZM447,247.71V236.85h3.69a9.73,9.73,0,0,1,1.89.15,3.59,3.59,0,0,1,1.57.79,4.61,4.61,0,0,1,1.27,1.85,7.39,7.39,0,0,1,.42,2.58,7.78,7.78,0,0,1-.28,2.2,5.53,5.53,0,0,1-.74,1.58,4.32,4.32,0,0,1-1,1,3.89,3.89,0,0,1-1.28.54,6.94,6.94,0,0,1-1.72.18Z"/><polygon class="cls-5" points="393.29 263.89 393.29 254.32 389.78 254.32 389.78 253.03 398.25 253.03 398.25 254.32 394.7 254.32 394.7 263.89 393.29 263.89"/><path class="cls-5" d="M423.69,263.89v-9.57h-3.51V253h8.47v1.29h-3.54v9.57ZM417.21,253h1.42v6.27a7.32,7.32,0,0,1-.37,2.6,3,3,0,0,1-1.32,1.57,4.5,4.5,0,0,1-2.49.6,5,5,0,0,1-2.47-.53,3,3,0,0,1-1.35-1.51,7.46,7.46,0,0,1-.4-2.73V253h1.4v6.26a6.43,6.43,0,0,0,.26,2.1,2,2,0,0,0,.89,1,3.09,3.09,0,0,0,1.55.36,2.84,2.84,0,0,0,2.22-.73,4.21,4.21,0,0,0,.66-2.76V253Zm-16.36,4.79h3a4.77,4.77,0,0,0,1.52-.19,1.65,1.65,0,0,0,.82-.66,1.72,1.72,0,0,0,.29-1,1.63,1.63,0,0,0-.56-1.25,2.47,2.47,0,0,0-1.73-.5h-3.39v3.59Zm-1.4,6.07V253h4.73a6.84,6.84,0,0,1,2.19.28,2.54,2.54,0,0,1,1.17,1A3.12,3.12,0,0,1,408,256a2.75,2.75,0,0,1-.72,2,3.62,3.62,0,0,1-2.29,1,3.47,3.47,0,0,1,.85.55,7,7,0,0,1,1.18,1.44l1.87,3h-1.8l-1.4-2.26c-.42-.65-.76-1.15-1-1.5a3.12,3.12,0,0,0-.71-.71,1.8,1.8,0,0,0-.64-.31,4.88,4.88,0,0,0-.8-.05h-1.64v4.83Z"/><polygon class="cls-5" points="430.14 263.89 430.14 253.03 431.56 253.03 431.56 257.49 437.11 257.49 437.11 253.03 438.53 253.03 438.53 263.89 437.11 263.89 437.11 258.78 431.56 258.78 431.56 263.89 430.14 263.89"/><path class="cls-5" d="M398.84,276.83l1.33-.11a2.94,2.94,0,0,0,.44,1.31,2.43,2.43,0,0,0,1.07.83,4.05,4.05,0,0,0,1.63.31,3.84,3.84,0,0,0,1.42-.24,2.07,2.07,0,0,0,.93-.65,1.6,1.6,0,0,0,.3-.91,1.36,1.36,0,0,0-.3-.88,2.13,2.13,0,0,0-1-.63c-.29-.11-.92-.28-1.9-.52a9.41,9.41,0,0,1-2.05-.66,2.87,2.87,0,0,1-1.14-1,2.45,2.45,0,0,1-.37-1.33,2.65,2.65,0,0,1,.46-1.5,2.8,2.8,0,0,1,1.33-1.07,5.7,5.7,0,0,1,4,0,3,3,0,0,1,1.39,1.12,3.3,3.3,0,0,1,.53,1.68l-1.36.1a2.16,2.16,0,0,0-.74-1.53,2.85,2.85,0,0,0-1.85-.51,3,3,0,0,0-1.86.47,1.4,1.4,0,0,0-.58,1.13,1.19,1.19,0,0,0,.41.94,5.56,5.56,0,0,0,2.12.76,14.86,14.86,0,0,1,2.36.68,3.19,3.19,0,0,1,1.37,1.08,2.63,2.63,0,0,1,.44,1.52,2.93,2.93,0,0,1-.48,1.6,3.32,3.32,0,0,1-1.4,1.17,5,5,0,0,1-2.05.42A6.09,6.09,0,0,1,401,280a3.43,3.43,0,0,1-1.54-1.27,3.67,3.67,0,0,1-.58-1.91Zm10.43,3.42V269.61H417v1.26h-6.28v3.25h5.88v1.26h-5.88V279h6.53v1.25Zm9.91,0V269.61h4.72a6.06,6.06,0,0,1,2.16.29,2.36,2.36,0,0,1,1.18,1,3,3,0,0,1,.45,1.6,2.67,2.67,0,0,1-.74,1.91,3.69,3.69,0,0,1-2.27,1,3.57,3.57,0,0,1,.86.53,7.07,7.07,0,0,1,1.16,1.42l1.85,2.89h-1.77l-1.4-2.21q-.61-1-1-1.47a3.35,3.35,0,0,0-.71-.71,2.28,2.28,0,0,0-.65-.28,4.52,4.52,0,0,0-.78-.05h-1.63v4.72Zm1.41-5.94h3a4.62,4.62,0,0,0,1.51-.2,1.64,1.64,0,0,0,.83-.64,1.71,1.71,0,0,0,.28-1,1.58,1.58,0,0,0-.55-1.24,2.57,2.57,0,0,0-1.73-.48h-3.36v3.52Zm12.08,5.94h1.44l4.17-10.64h-1.44L434,277.34c-.22.59-.41,1.16-.58,1.75-.15-.55-.33-1.13-.55-1.75l-2.77-7.73h-1.53l4.13,10.64Zm7.11,0V269.61h1.41v10.64Zm11.48-3.73,1.42.35a4.77,4.77,0,0,1-1.6,2.65,4.38,4.38,0,0,1-2.81.92,5,5,0,0,1-2.8-.71,4.28,4.28,0,0,1-1.64-2,7.11,7.11,0,0,1-.57-2.85,6.32,6.32,0,0,1,.64-2.9,4.38,4.38,0,0,1,1.81-1.88,5.25,5.25,0,0,1,2.58-.64,4.38,4.38,0,0,1,2.69.81,4.24,4.24,0,0,1,1.51,2.29l-1.39.33a3.27,3.27,0,0,0-1.07-1.7,2.88,2.88,0,0,0-1.77-.52,3.45,3.45,0,0,0-2.05.58,3.17,3.17,0,0,0-1.16,1.58,6.43,6.43,0,0,0-.33,2.05,6.52,6.52,0,0,0,.39,2.36,3,3,0,0,0,1.23,1.52,3.5,3.5,0,0,0,1.81.5,3,3,0,0,0,2-.68,3.5,3.5,0,0,0,1.11-2Zm3.18,3.73V269.61h7.69v1.26h-6.28v3.25h5.88v1.26h-5.88V279h6.53v1.25Z"/><path class="cls-7" d="M551.56,120.62a17.41,17.41,0,1,1-12.3,5.1,17.31,17.31,0,0,1,12.3-5.1Zm11.11,6.29A15.7,15.7,0,1,0,567.28,138,15.63,15.63,0,0,0,562.67,126.91Z"/><path class="cls-7" d="M543.33,147.39V128.48h8a13.8,13.8,0,0,1,4.41.51,4.32,4.32,0,0,1,2.2,1.81,5.45,5.45,0,0,1,.83,3,5,5,0,0,1-1.25,3.52,6,6,0,0,1-3.73,1.74,8.5,8.5,0,0,1,2,1.59A20.87,20.87,0,0,1,558,143.7l2.31,3.69h-4.56L553,143.26a26.84,26.84,0,0,0-2-2.77,2.94,2.94,0,0,0-1.15-.78,6.1,6.1,0,0,0-1.94-.22h-.77v7.9Zm3.83-10.91H550a15,15,0,0,0,3.43-.23,2.05,2.05,0,0,0,1.07-.8,2.47,2.47,0,0,0,.38-1.42,2.3,2.3,0,0,0-.51-1.55,2.33,2.33,0,0,0-1.43-.74c-.31,0-1.24-.07-2.79-.07h-3Z"/></g></svg>